<svg width="24" height="22" viewBox="0 0 24 22" fill="none" xmlns="http://www.w3.org/2000/svg">
<path d="M20.5067 3.60999C19.9959 3.099 19.3895 2.69364 18.722 2.41708C18.0545 2.14052 17.3391 1.99817 16.6167 1.99817C15.8942 1.99817 15.1788 2.14052 14.5113 2.41708C13.8438 2.69364 13.2374 3.099 12.7267 3.60999L11.6667 4.66999L10.6067 3.60999C9.57496 2.5783 8.17569 1.9987 6.71665 1.9987C5.25762 1.9987 3.85835 2.5783 2.82665 3.60999C1.79496 4.64169 1.21536 6.04096 1.21536 7.49999C1.21536 8.95903 1.79496 10.3583 2.82665 11.39L3.88665 12.45L11.6667 20.23L19.4467 12.45L20.5067 11.39C21.0176 10.8792 21.423 10.2728 21.6996 9.60535C21.9761 8.93789 22.1185 8.22248 22.1185 7.49999C22.1185 6.77751 21.9761 6.0621 21.6996 5.39464C21.423 4.72718 21.0176 4.12075 20.5067 3.60999V3.60999Z" stroke="black" stroke-width="2" stroke-linecap="round" stroke-linejoin="round"/>
</svg>
