<svg width="21" height="20" viewBox="0 0 21 20" fill="none" xmlns="http://www.w3.org/2000/svg">
<path d="M19.3333 9.50003C19.3368 10.8199 19.0284 12.1219 18.4333 13.3C17.7277 14.7118 16.6431 15.8992 15.3008 16.7293C13.9585 17.5594 12.4116 17.9994 10.8333 18C9.51345 18.0035 8.21143 17.6951 7.03331 17.1L1.33331 19L3.23331 13.3C2.63824 12.1219 2.32987 10.8199 2.33331 9.50003C2.33392 7.92179 2.77392 6.37488 3.60403 5.03258C4.43414 3.69028 5.62157 2.6056 7.03331 1.90003C8.21143 1.30496 9.51345 0.996587 10.8333 1.00003H11.3333C13.4177 1.11502 15.3864 1.99479 16.8625 3.47089C18.3386 4.94699 19.2183 6.91568 19.3333 9.00003V9.50003Z" stroke="black" stroke-width="2" stroke-linecap="round" stroke-linejoin="round"/>
</svg>
