<svg width="375" height="72" viewBox="0 0 375 72" fill="none" xmlns="http://www.w3.org/2000/svg">
<rect width="375" height="72" fill="#FFFFFE"/>
<rect x="24" y="16" width="102" height="40" rx="20" fill="#0E172C"/>
<path d="M43 33L52 26L61 33V44C61 44.5304 60.7893 45.0391 60.4142 45.4142C60.0391 45.7893 59.5304 46 59 46H45C44.4696 46 43.9609 45.7893 43.5858 45.4142C43.2107 45.0391 43 44.5304 43 44V33Z" stroke="#85D1CE" stroke-width="2" stroke-linecap="round" stroke-linejoin="round"/>
<path d="M49 46V36H55V46" stroke="#85D1CE" stroke-width="2" stroke-linecap="round" stroke-linejoin="round"/>
<path d="M80.834 30.56C81.0113 30.56 81.1467 30.616 81.24 30.728C81.3427 30.8307 81.394 30.9707 81.394 31.148V39.982C81.394 40.1593 81.3427 40.304 81.24 40.416C81.1467 40.5187 81.0113 40.57 80.834 40.57C80.6567 40.57 80.5167 40.5187 80.414 40.416C80.3113 40.304 80.26 40.1593 80.26 39.982V35.978H74.352V39.982C74.352 40.1593 74.3007 40.304 74.198 40.416C74.0953 40.5187 73.9553 40.57 73.778 40.57C73.6007 40.57 73.4607 40.5187 73.358 40.416C73.2647 40.304 73.218 40.1593 73.218 39.982V31.148C73.218 30.9707 73.2647 30.8307 73.358 30.728C73.4607 30.616 73.6007 30.56 73.778 30.56C73.9553 30.56 74.0953 30.616 74.198 30.728C74.3007 30.8307 74.352 30.9707 74.352 31.148V34.998H80.26V31.148C80.26 30.9707 80.3113 30.8307 80.414 30.728C80.5167 30.616 80.6567 30.56 80.834 30.56ZM86.5574 40.598C85.9134 40.598 85.344 40.4533 84.8494 40.164C84.364 39.8747 83.986 39.464 83.7154 38.932C83.454 38.3907 83.3234 37.7653 83.3234 37.056C83.3234 36.3467 83.454 35.726 83.7154 35.194C83.986 34.6527 84.364 34.2373 84.8494 33.948C85.344 33.6587 85.9134 33.514 86.5574 33.514C87.2014 33.514 87.7707 33.6587 88.2654 33.948C88.76 34.2373 89.138 34.6527 89.3994 35.194C89.67 35.726 89.8054 36.3467 89.8054 37.056C89.8054 37.7653 89.67 38.3907 89.3994 38.932C89.138 39.464 88.76 39.8747 88.2654 40.164C87.7707 40.4533 87.2014 40.598 86.5574 40.598ZM86.5574 39.66C87.2294 39.66 87.7427 39.4407 88.0974 39.002C88.4614 38.554 88.6434 37.9053 88.6434 37.056C88.6434 36.2253 88.4614 35.586 88.0974 35.138C87.7334 34.6807 87.22 34.452 86.5574 34.452C85.8947 34.452 85.3814 34.6807 85.0174 35.138C84.6534 35.586 84.4714 36.2253 84.4714 37.056C84.4714 37.896 84.6487 38.54 85.0034 38.988C85.3674 39.436 85.8854 39.66 86.5574 39.66ZM99.153 33.514C100.665 33.514 101.421 34.4147 101.421 36.216V40.01C101.421 40.1873 101.37 40.3273 101.267 40.43C101.164 40.5233 101.029 40.57 100.861 40.57C100.693 40.57 100.553 40.5233 100.441 40.43C100.338 40.3273 100.287 40.1873 100.287 40.01V36.244C100.287 35.6187 100.175 35.166 99.951 34.886C99.727 34.606 99.377 34.466 98.901 34.466C98.3317 34.466 97.8837 34.6573 97.557 35.04C97.2303 35.4227 97.067 35.9407 97.067 36.594V40.01C97.067 40.1873 97.011 40.3273 96.899 40.43C96.7963 40.5233 96.661 40.57 96.493 40.57C96.325 40.57 96.1897 40.5233 96.087 40.43C95.9843 40.3273 95.933 40.1873 95.933 40.01V36.244C95.933 35.6187 95.821 35.166 95.597 34.886C95.373 34.606 95.0183 34.466 94.533 34.466C93.973 34.466 93.525 34.6573 93.189 35.04C92.8623 35.4227 92.699 35.9407 92.699 36.594V40.01C92.699 40.1873 92.6477 40.3273 92.545 40.43C92.4423 40.5233 92.307 40.57 92.139 40.57C91.971 40.57 91.831 40.5233 91.719 40.43C91.6163 40.3273 91.565 40.1873 91.565 40.01V34.102C91.565 33.934 91.6163 33.7987 91.719 33.696C91.831 33.5933 91.971 33.542 92.139 33.542C92.2977 33.542 92.4283 33.5933 92.531 33.696C92.6337 33.7893 92.685 33.92 92.685 34.088V34.76C92.8903 34.3587 93.175 34.0507 93.539 33.836C93.903 33.6213 94.323 33.514 94.799 33.514C95.863 33.514 96.5583 33.962 96.885 34.858C97.081 34.4473 97.3797 34.1207 97.781 33.878C98.1823 33.6353 98.6397 33.514 99.153 33.514ZM108.835 38.918C108.938 38.918 109.026 38.96 109.101 39.044C109.176 39.128 109.213 39.2353 109.213 39.366C109.213 39.5993 109.05 39.814 108.723 40.01C108.387 40.206 108.032 40.3553 107.659 40.458C107.286 40.5513 106.922 40.598 106.567 40.598C105.512 40.598 104.677 40.2853 104.061 39.66C103.454 39.0347 103.151 38.1713 103.151 37.07C103.151 36.37 103.286 35.754 103.557 35.222C103.828 34.6807 104.206 34.2607 104.691 33.962C105.186 33.6633 105.746 33.514 106.371 33.514C107.258 33.514 107.962 33.8033 108.485 34.382C109.008 34.9607 109.269 35.7447 109.269 36.734C109.269 36.9207 109.232 37.056 109.157 37.14C109.082 37.224 108.961 37.266 108.793 37.266H104.285C104.369 38.8713 105.13 39.674 106.567 39.674C106.931 39.674 107.244 39.6273 107.505 39.534C107.766 39.4313 108.046 39.296 108.345 39.128C108.588 38.988 108.751 38.918 108.835 38.918ZM106.385 34.396C105.788 34.396 105.307 34.5827 104.943 34.956C104.588 35.3293 104.378 35.8567 104.313 36.538H108.275C108.256 35.8473 108.084 35.32 107.757 34.956C107.43 34.5827 106.973 34.396 106.385 34.396Z" fill="#85D1CE"/>
<path d="M198 35.5C198.003 36.8199 197.695 38.1219 197.1 39.3C196.394 40.7118 195.31 41.8992 193.967 42.7293C192.625 43.5594 191.078 43.9994 189.5 44C188.18 44.0035 186.878 43.6951 185.7 43.1L180 45L181.9 39.3C181.305 38.1219 180.997 36.8199 181 35.5C181.001 33.9218 181.441 32.3749 182.271 31.0326C183.101 29.6903 184.288 28.6056 185.7 27.9C186.878 27.305 188.18 26.9966 189.5 27H190C192.084 27.115 194.053 27.9948 195.529 29.4709C197.005 30.947 197.885 32.9157 198 35V35.5Z" stroke="black" stroke-width="2" stroke-linecap="round" stroke-linejoin="round"/>
<path d="M272.84 28.61C272.329 28.099 271.723 27.6936 271.055 27.4171C270.388 27.1405 269.672 26.9982 268.95 26.9982C268.228 26.9982 267.512 27.1405 266.845 27.4171C266.177 27.6936 265.571 28.099 265.06 28.61L264 29.67L262.94 28.61C261.908 27.5783 260.509 26.9987 259.05 26.9987C257.591 26.9987 256.192 27.5783 255.16 28.61C254.128 29.6417 253.549 31.041 253.549 32.5C253.549 33.959 254.128 35.3583 255.16 36.39L256.22 37.45L264 45.23L271.78 37.45L272.84 36.39C273.351 35.8792 273.756 35.2728 274.033 34.6053C274.309 33.9379 274.452 33.2225 274.452 32.5C274.452 31.7775 274.309 31.0621 274.033 30.3946C273.756 29.7272 273.351 29.1208 272.84 28.61V28.61Z" stroke="black" stroke-width="2" stroke-linecap="round" stroke-linejoin="round"/>
<path d="M347 45V43C347 41.9391 346.579 40.9217 345.828 40.1716C345.078 39.4214 344.061 39 343 39H335C333.939 39 332.922 39.4214 332.172 40.1716C331.421 40.9217 331 41.9391 331 43V45" stroke="black" stroke-width="2" stroke-linecap="round" stroke-linejoin="round"/>
<path d="M339 35C341.209 35 343 33.2091 343 31C343 28.7909 341.209 27 339 27C336.791 27 335 28.7909 335 31C335 33.2091 336.791 35 339 35Z" stroke="black" stroke-width="2" stroke-linecap="round" stroke-linejoin="round"/>
</svg>
